<svg width="800" height="800" viewBox="0 0 800 800" fill="none" xmlns="http://www.w3.org/2000/svg">
  <path d="M400 50C400 50 250 100 150 250C50 400 100 550 150 650C200 750 300 750 400 750C500 750 600 750 650 650C700 550 750 400 650 250C550 100 400 50 400 50Z" stroke="#6366F1" stroke-width="30" fill="none"/>
  <path d="M250 150C250 150 150 200 100 300C50 400 100 500 150 550" stroke="#6366F1" stroke-width="30" fill="none"/>
  <path d="M550 150C550 150 650 200 700 300C750 400 700 500 650 550" stroke="#6366F1" stroke-width="30" fill="none"/>
  <path d="M400 150C400 150 350 200 350 250C350 300 375 325 400 350C425 325 450 300 450 250C450 200 400 150 400 150Z" stroke="#6366F1" stroke-width="30" fill="none"/>
  <path d="M350 650C350 650 375 700 400 700C425 700 450 650 450 650" stroke="#6366F1" stroke-width="30" fill="none"/>
</svg>

