<?xml version="1.0" encoding="UTF-8"?>
<svg version="1.1" xmlns="http://www.w3.org/2000/svg" width="500" height="500">
<path d="M0 0 C13.15374711 11.24442525 20.98956448 25.34000472 28.375 40.75 C31.9282829 40.1857736 35.06117897 39.13967576 38.38696289 37.78198242 C74.50230267 23.11513402 120.26454969 22.81554744 156.375 37.75 C165.15625346 41.56974146 172.23256913 46.50677576 176.3125 55.4375 C179.96613588 66.98843581 176.62118024 78.16033827 171.75 88.6875 C168.41474583 95.10334608 164.21087742 100.40218116 159.375 105.75 C158.62476563 106.59433594 157.87453125 107.43867188 157.1015625 108.30859375 C141.84025438 124.55859126 119.18466965 135.6656288 96.8515625 136.953125 C80.32076735 137.15431115 64.18114886 135.18522653 51.1875 124.140625 C49.49128992 122.54709377 49.49128992 122.54709377 47.375 122.75 C46.40760492 124.74563262 45.45153956 126.74675882 44.5 128.75 C43.96632813 129.86375 43.43265625 130.9775 42.8828125 132.125 C40.15235132 138.68942481 39.05609644 145.22650913 38.33203125 152.2421875 C38.14807871 153.91201479 37.96347888 155.58177086 37.77832031 157.25146484 C37.68280884 158.12550964 37.58729736 158.99955444 37.4888916 159.90008545 C24.51881104 277.1640074 24.51881104 277.1640074 -0.5859375 306.23046875 C-2.13636248 308.32803211 -2.68703461 309.18497477 -2.39941406 311.8046875 C-1.60440084 314.19078296 -0.63733829 316.44801472 0.375 318.75 C0.98850277 320.52149751 1.58443008 322.29916408 2.1640625 324.08203125 C2.46570313 324.98244141 2.76734375 325.88285156 3.078125 326.81054688 C3.38234375 327.71869141 3.6865625 328.62683594 4 329.5625 C4.31195313 330.48998047 4.62390625 331.41746094 4.9453125 332.37304688 C5.39390625 333.71399414 5.39390625 333.71399414 5.8515625 335.08203125 C6.12049316 335.88358643 6.38942383 336.6851416 6.66650391 337.51098633 C9.66958457 347.0014249 10.03115199 358.55785263 5.6171875 367.64453125 C0.24763358 376.7457563 -7.39326978 380.63754908 -17.3125 384 C-20.80379403 385.84445723 -22.33570071 387.52628796 -24.875 390.5 C-29.49214267 395.88666645 -34.42509538 399.36494259 -40.625 402.75 C-41.35332031 403.14960938 -42.08164062 403.54921875 -42.83203125 403.9609375 C-58.93493087 411.90782303 -77.80811597 411.61812158 -94.65136719 406.42578125 C-105.88191402 402.58038867 -116.96982883 394.73275676 -123.625 384.75 C-125.78342397 383.93879949 -127.97819761 383.22266911 -130.1875 382.5625 C-138.63895992 379.7847247 -144.96662028 375.45933889 -149.125 367.4375 C-155.30707862 352.23989007 -150.92852331 337.00463894 -144.88671875 322.55859375 C-144.60393066 321.87756592 -144.32114258 321.19653809 -144.02978516 320.49487305 C-143.23233991 318.6061991 -142.40034538 316.73222143 -141.56640625 314.859375 C-140.37211646 311.93717852 -140.37211646 311.93717852 -141.2109375 309.75 C-141.67757812 309.09 -142.14421875 308.43 -142.625 307.75 C-169.77493644 262.97843462 -177.18825462 204.59010155 -181.46191406 153.06665039 C-182.464882 142.23778339 -185.38851318 132.28788671 -190.625 122.75 C-193.55095245 124.12460853 -196.06927348 125.7359618 -198.6875 127.625 C-212.64629812 136.96122713 -231.56176972 138.98132495 -247.89453125 136.0625 C-268.0606641 131.91274066 -284.82559837 123.09526837 -299.625 108.75 C-300.54152344 107.94369141 -300.54152344 107.94369141 -301.4765625 107.12109375 C-309.83569169 99.50627058 -316.24533282 88.49251354 -319.625 77.75 C-319.90923828 76.84701172 -319.90923828 76.84701172 -320.19921875 75.92578125 C-321.92412182 67.11136833 -321.69679948 57.36601365 -316.625 49.75 C-306.04334943 36.81687152 -287.36509036 32.47633315 -271.625 29.75 C-270.61083008 29.57267334 -269.59666016 29.39534668 -268.55175781 29.21264648 C-259.13246525 27.70860685 -249.89068462 27.30857517 -240.375 27.3125 C-239.2022905 27.31139725 -239.2022905 27.31139725 -238.00588989 27.31027222 C-215.26155754 27.36604008 -193.0535538 31.34443397 -172.625 41.75 C-172.36920166 41.24251221 -172.11340332 40.73502441 -171.84985352 40.2121582 C-157.06126742 11.0467867 -138.37190673 -9.16043698 -107 -20.0625 C-69.79409608 -31.73108866 -30.31675708 -24.98160014 0 0 Z M-136.3125 18.9375 C-145.24511074 28.25225452 -150.46566256 40.09312198 -155.625 51.75 C-154.82578125 52.40484375 -154.0265625 53.0596875 -153.203125 53.734375 C-115.72259298 84.73707447 -97.69249307 127.32215933 -92.0390625 175.3359375 C-91.3590632 182.70379457 -91.38080044 190.10670358 -91.375 197.5 C-91.37432526 198.2752301 -91.37365051 199.05046021 -91.37295532 199.84918213 C-91.40807028 225.33608083 -96.03557496 249.32233868 -104.48828125 273.35546875 C-105.73084563 276.46944855 -105.73084563 276.46944855 -105.625 278.75 C-103.79775391 278.33427734 -103.79775391 278.33427734 -101.93359375 277.91015625 C-100.30992812 277.54412758 -98.68622838 277.1782502 -97.0625 276.8125 C-96.26263672 276.63009766 -95.46277344 276.44769531 -94.63867188 276.25976562 C-74.98642276 271.84803623 -56.95591823 273.79887395 -37.625 278.75 C-37.87668945 277.92612793 -38.12837891 277.10225586 -38.38769531 276.25341797 C-43.45029083 259.56912632 -48.21633197 243.06596166 -50.625 225.75 C-50.77424927 224.76797607 -50.77424927 224.76797607 -50.92651367 223.76611328 C-55.08748746 192.76555475 -50.93985089 160.37418292 -41.625 130.75 C-41.27332764 129.61860596 -41.27332764 129.61860596 -40.91455078 128.46435547 C-33.10461329 103.77789816 -20.80582919 82.88520898 -2.5625 64.4375 C-1.99708496 63.86273926 -1.43166992 63.28797852 -0.84912109 62.69580078 C3.26455539 58.61290289 7.66355518 55.12033652 12.375 51.75 C1.51111898 27.04912868 -12.83038905 8.78913745 -38.625 -1.25 C-44.20154127 -2.98388258 -49.89076443 -4.17128242 -55.625 -5.25 C-49.65047244 8.50530764 -37.34846939 17.61740264 -24.625 24.75 C-23.635 25.08 -22.645 25.41 -21.625 25.75 C-19.75992082 29.28121657 -19.35276279 32.29177587 -19.375 36.25 C-19.36726563 37.62671875 -19.36726563 37.62671875 -19.359375 39.03125 C-19.64237402 41.9278282 -20.42149755 44.11375653 -21.625 46.75 C-41.37449222 39.00409526 -61.69673383 26.02357678 -70.625 5.75 C-71.285 5.75 -71.945 5.75 -72.625 5.75 C-73.85500815 7.47743792 -75.00747032 9.26025439 -76.125 11.0625 C-85.14825658 24.85704693 -96.44104548 34.85385114 -111.125 42.3125 C-111.80771973 42.65949951 -112.49043945 43.00649902 -113.19384766 43.36401367 C-116.65204203 45.04234364 -118.70947651 45.75 -122.625 45.75 C-123.59834604 42.42307131 -123.88651939 39.2736586 -124 35.8125 C-124.07347656 34.28302734 -124.07347656 34.28302734 -124.1484375 32.72265625 C-123.43339038 28.66182896 -121.75974553 27.35724352 -118.625 24.75 C-116.76107607 23.45289876 -114.86330725 22.20330813 -112.9375 21 C-102.75376397 14.34862997 -92.61464702 6.11530709 -87.625 -5.25 C-105.1621422 -5.25 -124.12573004 7.57976201 -136.3125 18.9375 Z M-225.625 46.75 C-223.14449072 49.23050928 -220.69582207 50.16176484 -217.5 51.625 C-205.68507296 57.28871273 -195.16577947 65.83690339 -185.625 74.75 C-183.26246991 72.38746991 -182.587152 70.43772729 -181.4375 67.3125 C-181.07269531 66.34441406 -180.70789063 65.37632812 -180.33203125 64.37890625 C-179.34463855 61.67147634 -179.34463855 61.67147634 -180.625 58.75 C-182.86009264 57.61581903 -184.97757546 56.68942909 -187.3125 55.8125 C-187.98804932 55.55307617 -188.66359863 55.29365234 -189.35961914 55.02636719 C-201.31496104 50.52586064 -212.9615044 47.99990346 -225.625 46.75 Z M69.1875 48.3125 C68.30634521 48.49159912 67.42519043 48.67069824 66.51733398 48.85522461 C56.19070739 51.06549154 45.30517318 53.95140971 36.375 59.75 C38.56113142 67.35817846 38.56113142 67.35817846 41.375 74.75 C42.0100647 74.1938501 42.0100647 74.1938501 42.65795898 73.62646484 C54.44775731 63.39772465 67.63605046 53.25655921 82.375 47.75 C77.69658548 46.31003326 73.88764684 47.34389615 69.1875 48.3125 Z M-282.4375 56.5 C-283.21343506 56.57379883 -283.98937012 56.64759766 -284.78881836 56.72363281 C-293.86349651 57.62738112 -293.86349651 57.62738112 -301.625 61.75 C-302.96997276 72.86256179 -298.41392998 80.35393265 -291.88671875 88.98046875 C-285.13790464 97.24456064 -277.91247022 103.50815718 -268.625 108.75 C-267.84769531 109.21148437 -267.07039063 109.67296875 -266.26953125 110.1484375 C-252.78506888 117.60216042 -235.30368093 120.49855846 -220.25 116.6875 C-209.04547967 112.55951882 -200.03837519 105.00951408 -194.37890625 94.41796875 C-194.13011719 93.86753906 -193.88132812 93.31710938 -193.625 92.75 C-213.56890003 71.34083385 -239.10841747 57.59018449 -268.6328125 55.78125 C-273.28005799 55.74487234 -277.81576654 56.04212489 -282.4375 56.5 Z M54.375 88.5 C53.03067207 89.90623776 51.69244473 91.31854563 50.375 92.75 C56.91584828 104.0834514 64.40974545 112.04427342 76.9375 116.625 C94.67385687 121.26032331 112.93576751 116.20647044 128.3828125 107.3125 C134.46943552 103.56688583 139.43981526 98.87706595 144.375 93.75 C145.04917969 93.09515625 145.72335937 92.4403125 146.41796875 91.765625 C152.84270911 85.12814489 158.74632594 75.42214995 158.9375 66 C158.77158378 62.76730987 158.72762492 62.10262492 156.375 59.75 C119.29842052 48.80507753 81.16782716 61.89558934 54.375 88.5 Z M-163.625 70.75 C-163.86621582 71.32331055 -164.10743164 71.89662109 -164.35595703 72.48730469 C-165.48322702 75.15994765 -166.61582069 77.8302817 -167.75 80.5 C-168.15653809 81.4590625 -168.56307617 82.418125 -168.98193359 83.40625 C-171.62191375 89.57627863 -174.43487074 95.52310354 -177.7265625 101.375 C-178.87088722 104.39999752 -178.66723994 105.69706707 -177.625 108.75 C-175.80430188 112.04257091 -173.82267289 115.20868343 -171.828125 118.3984375 C-164.97824831 131.06663953 -163.44822588 144.43389739 -161.97079468 158.5333252 C-161.38093352 164.12698512 -160.7282524 169.71340049 -160.08203125 175.30078125 C-159.89384575 176.94190384 -159.89384575 176.94190384 -159.70185852 178.61618042 C-155.33671754 216.40650091 -147.78835341 255.11365665 -131.625 289.75 C-127.0992312 285.8669343 -125.80569347 280.00711073 -123.8125 274.5625 C-123.36962646 273.3552124 -122.92675293 272.1479248 -122.47045898 270.90405273 C-118.33235567 259.35829888 -115.14384904 247.74636927 -112.625 235.75 C-112.36033936 234.55358887 -112.36033936 234.55358887 -112.09033203 233.33300781 C-107.09299418 210.0649273 -107.66478803 182.98720189 -112.625 159.75 C-112.89038574 158.50573242 -112.89038574 158.50573242 -113.16113281 157.23632812 C-117.14624582 139.16222318 -122.65080832 121.97523491 -131.625 105.75 C-132.54925781 104.06970703 -132.54925781 104.06970703 -133.4921875 102.35546875 C-140.16210722 90.91143637 -149.55168227 78.32029365 -160.625 70.75 C-161.615 70.75 -162.605 70.75 -163.625 70.75 Z M5 82.046875 C-23.2688135 112.13296936 -34.11884128 157.14505783 -33.9375 197.375 C-33.93567719 198.21415955 -33.93385437 199.05331909 -33.93197632 199.91790771 C-33.88623236 212.42731585 -33.38211477 224.50589153 -30.625 236.75 C-30.46402832 237.51699219 -30.30305664 238.28398437 -30.13720703 239.07421875 C-26.46854789 256.35673981 -20.84780635 273.62519984 -13.625 289.75 C14.857213 266.0720157 15.98487485 185.57451099 19.60180664 151.28686523 C20.94751789 138.92740916 23.29185573 127.50346908 29.5 116.5625 C29.84675781 115.92248047 30.19351563 115.28246094 30.55078125 114.62304688 C31.97596182 112.03205768 33.2741345 109.8508655 35.375 107.75 C35.09970016 102.68299492 33.03438561 98.70316791 30.6875 94.3125 C26.71003776 86.64579742 23.43606058 78.82006881 20.375 70.75 C14.91453728 70.75 8.73946718 78.43041661 5 82.046875 Z M-94.625 294.75 C-95.58535156 295.01683594 -96.54570312 295.28367187 -97.53515625 295.55859375 C-103.10708408 297.40496159 -106.0021158 299.50539221 -108.73046875 304.75 C-109.02566406 305.41 -109.32085937 306.07 -109.625 306.75 C-110.2746875 308.173125 -110.2746875 308.173125 -110.9375 309.625 C-112.18810235 315.30955611 -112.34996184 320.57511448 -110.5 326.125 C-107.54295127 330.26486822 -103.81977608 332.16388343 -99.3125 334.375 C-94.05805634 337.2731909 -90.43489058 342.22305518 -86.625 346.75 C-89.65126945 350.23020987 -92.01917227 350.59768572 -96.5078125 351.0234375 C-104.51665074 351.27431677 -109.91389776 350.15492347 -116.625 345.75 C-117.21023437 345.37746094 -117.79546875 345.00492187 -118.3984375 344.62109375 C-122.94291253 341.31077818 -125.20187964 336.67129313 -127.625 331.75 C-132.56648461 339.16222691 -133.71166373 348.00614762 -132.625 356.75 C-130.73905565 361.3418645 -128.53799878 363.01051474 -124.1875 365.0625 C-111.63637393 370.23574674 -96.71225685 368.14100082 -83.70288086 365.81738281 C-74.53480733 364.21963513 -66.18880048 364.62935645 -57.0625 366.25 C-42.5878523 368.6055152 -27.17720157 370.25743936 -14.25390625 362.1640625 C-11.55039653 359.8171308 -10.74525232 357.67845976 -10.2890625 354.15625 C-10.18397577 346.33779759 -11.74587047 339.99923686 -14.625 332.75 C-16.85891024 334.85365309 -18.50008756 337.0087146 -20.1875 339.5625 C-24.28598568 345.14385487 -30.10602507 348.57700836 -36.625 350.75 C-43.93254575 351.26350321 -50.14617729 351.36608709 -56.625 347.75 C-51.78340269 339.80978041 -46.48256891 334.67054573 -37.859375 330.98828125 C-34.2404858 328.98270804 -32.91274003 326.61322008 -31.625 322.75 C-30.56649476 314.42077847 -32.89215737 306.64223042 -37.6875 299.8125 C-53.34319056 288.82020663 -77.05722265 289.68363724 -94.625 294.75 Z M-84.625 384.25 C-85.39972656 384.39308594 -86.17445313 384.53617187 -86.97265625 384.68359375 C-88.85795579 385.03272329 -90.74165939 385.39045316 -92.625 385.75 C-87.4913705 390.8836295 -78.65785292 391.09323435 -71.75 391.1875 C-64.18156924 391.17484074 -57.70503403 389.46562949 -50.625 386.75 C-53.97463521 384.81501655 -57.06441562 384.19387871 -60.875 383.625 C-61.95265625 383.45742188 -63.0303125 383.28984375 -64.140625 383.1171875 C-71.2896516 382.36381474 -77.61410174 382.901283 -84.625 384.25 Z " fill="#605BFF" transform="translate(321.625,72.25)"/>
<path d="M0 0 C0.66 0 1.32 0 2 0 C3.36656253 1.57980635 4.66735132 3.21668653 5.9375 4.875 C10.12853752 10.14781506 14.58170644 14.42629509 19.71484375 18.80859375 C23.07899849 22.03473188 23.89670639 24.00149509 24.375 28.625 C24.27650788 33.84508239 22.14801102 38.32040455 20 43 C13.17630763 40.47270653 6.84769894 36.48000749 2 31 C-1.1804888 32.44961054 -3.71997367 34.24746578 -6.4375 36.4375 C-14.75 43 -14.75 43 -18 43 C-21.31193827 36.87882838 -23.66450907 30.99773202 -22 24 C-18.79403542 18.63412575 -13.72069149 14.84915121 -8.9921875 10.875 C-6.06810821 8.12292537 -3.78154426 4.97708142 -1.4453125 1.72265625 C-0.96835938 1.15417969 -0.49140625 0.58570312 0 0 Z " fill="#605BFF" transform="translate(249,96)"/>
</svg>
